<svg width="160" height="169" viewBox="0 0 160 169" fill="none" xmlns="http://www.w3.org/2000/svg">
<path d="M156.093 68.3623L85.2668 3.2022C82.9644 1.08389 79.9323 -0.0625049 76.8043 0.00263112C73.6763 0.0677671 70.6945 1.33939 68.4823 3.55171L3.34287 68.6915L0 72.034V168.063H62.7702V108.146H97.0084V168.063H159.779V71.7533L156.093 68.3623ZM77.0497 11.413C77.1502 11.413 77.0882 11.4347 77.045 11.4772C77.0004 11.4347 76.9491 11.413 77.0497 11.413ZM148.366 156.651H108.421V108.146C108.421 105.12 107.219 102.217 105.078 100.076C102.938 97.9361 100.035 96.7337 97.0084 96.7337H62.7702C59.7433 96.7337 56.8404 97.9361 54.7001 100.076C52.5598 102.217 51.3574 105.12 51.3574 108.146V156.651H11.4128V76.7613L77.0497 11.6216C77.0543 11.6173 77.0547 11.6134 77.0582 11.6091L148.366 76.7613V156.651Z" fill="black"/>
</svg>
